<svg height="95" width="262" xmlns="http://www.w3.org/2000/svg"><path d="M243.303 21.015c1.422-1.056 2.974-2.112 4.138-3.45.905-1.057 1.551-2.395 1.357-3.662-.452-2.676-3.685-3.31-6.595-2.676-1.81.422-3.62 1.267-4.978 2.535-.582.493-1.1 1.127-1.358 1.76-.259.845.388 1.409 1.422 1.127.776-.211 1.423-.704 2.005-1.197.711-.704 1.358-1.479 2.457-1.69.711-.141 1.358.07 1.358.774 0 .564-.518 1.127-1.035 1.55-.452.352-.84.704-1.293.986-1.552 1.197-3.039 2.394-4.203 3.873-.517.704-.97 1.479-1.228 2.253-.324.916-.453 1.831-.259 2.676.259 1.197 1.293 2.042 2.716 2.113 2.65.07 5.366-.141 8.147-.564 1.422-.281 2.91-1.126 3.038-2.535.13-1.479-1.422-1.972-2.91-1.76-2.004.281-4.008.493-6.012.704.776-1.056 2.069-1.901 3.233-2.817zM208.04 49c-4.516 0-26.821 22-3.763 22 18.884 0 7.936-22 3.763-22zM53.79 48c-5.12 0-32.267 22-4.419 22 22.096 0 9.54-22 4.42-22zm47.628-19.448c3.336 4.336 5.282 9.023 7.644 13.919 1.112-.7 2.572-13.01 2.92-14.969 1.042-6.085 4.795-22.452 12.787-22.452 4.239 0 7.088 4.267 8.478 7.834 1.946 4.896 3.127 9.722 4.03 14.898.487 2.798 1.39 8.953 2.086 11.471 5.976-2.797 17.443-9.163 17.652-9.232 3.822-2.099 11.883.56 7.783 7.833-3.197 5.736-17.165 18.816-17.165 20.285 0 .909 12.161 7.834 13.899 8.183.278-.49.695-.979.834-1.469 1.529-3.917 2.154-7.624 4.17-11.4 7.088-13.64 24.532-30.077 40.863-29.588a32.01 32.01 0 0 1 14.038 3.707c-.834-2.867-.834-5.945.417-9.162 4.378-11.402 20.78-16.857 31.134-12.45 7.367 3.147 10.98 10.141 7.923 18.185-3.753 9.862-15.22 18.116-25.436 16.018 6.81 9.932 9.521 22.872 5.421 34.203C235.128 90.593 213.098 95 197.948 95c-4.448 0-20.015-2.938-20.432-2.868-8.34.77-12.996 1.539-21.474-.7l-15.22-5.945c-1.598-.42-3.544 2.938-4.587 3.847-7.019 6.435-18 3.358-25.088-.979-8.061 5.176-22.1 7.205-30.16.77-1.39-1.12-4.588-5.876-5.074-6.086-17.026 10.842-42.531 14.13-62.199 9.093-3.058-.07-9.799-4.826-11.05-7.624C-.74 76.884-.324 69.54.858 61.216c1.32-9.093 3.057-18.186 4.586-27.209C6.626 27.153 11.143 4.7 19.76 4.7c10.842 0 11.467 21.893 14.872 23.222 2.989-.91 8.896-1.958 11.954-1.958 14.385 0 23.906 7.973 33.01 17.976.278.28.626.56.973.84.765-.7 6.046-12.731 8.479-16.018l-.348-.98C73.342 20.088 83.974-5.302 101.348.993c5.074 1.889 8.41 7.205 8.41 12.52 0 9.163-8.27 13.85-8.34 15.039z" fill="#e73f39" fill-rule="evenodd"/></svg>